<?xml version="1.0" encoding="UTF-8" standalone="no"?>
<!-- Created with Inkscape (http://www.inkscape.org/) -->

<svg
   width="210mm"
   height="297mm"
   viewBox="0 0 210 297"
   version="1.1"
   id="svg5"
   inkscape:version="1.2.1 (9c6d41e410, 2022-07-14)"
   sodipodi:docname="Logo.svg"
   xmlns:inkscape="http://www.inkscape.org/namespaces/inkscape"
   xmlns:sodipodi="http://sodipodi.sourceforge.net/DTD/sodipodi-0.dtd"
   xmlns="http://www.w3.org/2000/svg"
   xmlns:svg="http://www.w3.org/2000/svg">
  <sodipodi:namedview
     id="namedview7"
     pagecolor="#ffffff"
     bordercolor="#000000"
     borderopacity="0.25"
     inkscape:showpageshadow="2"
     inkscape:pageopacity="0.0"
     inkscape:pagecheckerboard="0"
     inkscape:deskcolor="#d1d1d1"
     inkscape:document-units="mm"
     showgrid="false"
     inkscape:zoom="0.71624579"
     inkscape:cx="397.21001"
     inkscape:cy="561.95793"
     inkscape:window-width="1920"
     inkscape:window-height="991"
     inkscape:window-x="-9"
     inkscape:window-y="-9"
     inkscape:window-maximized="1"
     inkscape:current-layer="text234" />
  <defs
     id="defs2">
    <rect
       x="290.4031"
       y="628.27594"
       width="58.639088"
       height="37.696557"
       id="rect7192" />
    <rect
       x="304.36479"
       y="569.63686"
       width="71.204607"
       height="62.827594"
       id="rect7186" />
    <rect
       x="404.88894"
       y="550.09049"
       width="195.46363"
       height="170.33259"
       id="rect7130" />
    <inkscape:path-effect
       effect="bend_path"
       id="path-effect7126"
       is_visible="true"
       lpeversion="1"
       bendpath="m 309.40679,399.13814 97.71188,-72.60078"
       prop_scale="1"
       scale_y_rel="false"
       vertical="false"
       hide_knot="false"
       bendpath-nodetypes="cc" />
    <inkscape:path-effect
       effect="knot"
       id="path-effect7124"
       is_visible="true"
       lpeversion="1"
       switcher_size="15"
       interruption_width="3"
       prop_to_stroke_width="true"
       add_stroke_width="inkscape_1.0_and_up"
       both="false"
       inverse_width="false"
       add_other_stroke_width="inkscape_1.0_and_up"
       crossing_points_vector="" />
    <rect
       x="374.17323"
       y="769.28899"
       width="94.939476"
       height="85.166295"
       id="rect7048" />
    <linearGradient
       id="linearGradient6942"
       inkscape:swatch="solid">
      <stop
         style="stop-color:#1a1a1a;stop-opacity:1;"
         offset="0"
         id="stop6940" />
    </linearGradient>
    <inkscape:path-effect
       effect="bend_path"
       id="path-effect905"
       is_visible="true"
       lpeversion="1"
       bendpath="m 234.01204,400.61918 142.48182,78.48547"
       prop_scale="1.3169864"
       scale_y_rel="false"
       vertical="false"
       hide_knot="false"
       bendpath-nodetypes="cc" />
    <rect
       x="272.25291"
       y="395.11576"
       width="268.0644"
       height="302.96862"
       id="rect236" />
    <inkscape:path-effect
       effect="bend_path"
       id="path-effect905-9"
       is_visible="true"
       lpeversion="1"
       bendpath="m 276.86687,434.42725 157.27487,54.8102"
       prop_scale="1.3169864"
       scale_y_rel="false"
       vertical="false"
       hide_knot="false"
       bendpath-nodetypes="cc" />
    <inkscape:path-effect
       effect="bend_path"
       id="path-effect905-9-7"
       is_visible="true"
       lpeversion="1"
       bendpath="m 276.86687,434.42725 157.27487,54.8102"
       prop_scale="1.3169864"
       scale_y_rel="false"
       vertical="false"
       hide_knot="false"
       bendpath-nodetypes="cc" />
  </defs>
  <g
     inkscape:label="Layer 1"
     inkscape:groupmode="layer"
     id="layer1">
    <g
       aria-label="O"
       transform="scale(0.26458333)"
       id="text234"
       style="font-weight:bold;font-size:64px;-inkscape-font-specification:'sans-serif Bold';white-space:pre;shape-inside:url(#rect236)">
      <g
         aria-label="O"
         id="text7119"
         style="font-size:93.3333px;font-family:Calibri;-inkscape-font-specification:'Calibri Bold';fill:#ffffff"
         transform="translate(15.357857,132.63603)">
        <path
           d="m 406.53595,326.11869 c 2.91729,3.92633 4.46302,8.2283 4.6372,12.90588 0.17416,4.6776 -1.03291,9.6623 -3.62118,14.95409 -2.6064,5.2674 -6.59461,10.78558 -11.96463,16.55452 -5.33497,5.70505 -12.07046,11.58013 -20.20647,17.62526 -8.02965,5.9661 -15.4023,10.70596 -22.11792,14.21956 -6.68055,3.4497 -12.74881,5.66852 -18.20477,6.65646 -5.45595,0.98794 -10.32678,0.70841 -14.61246,-0.83858 -4.23251,-1.58651 -7.89802,-4.46485 -10.99652,-8.63505 -2.84482,-3.82878 -4.33618,-8.05758 -4.47411,-12.68641 -0.15605,-4.6532 1.06914,-9.61351 3.67553,-14.88091 2.60639,-5.2674 6.56801,-10.76583 11.88486,-16.49526 5.37003,-5.76894 12.14963,-11.69572 20.33882,-17.78036 7.81695,-5.80807 15.05665,-10.44914 21.7191,-13.92324 6.71562,-3.51361 12.8014,-5.76437 18.25736,-6.75232 5.50913,-1.02745 10.39748,-0.77987 14.66504,0.74274 4.30262,1.45871 7.97601,4.23658 11.02015,8.33362 z m -21.63457,16.86953 c -1.84822,-2.48749 -3.94973,-4.42721 -6.3045,-5.81918 -2.3729,-1.41635 -5.13083,-2.07348 -8.27378,-1.97142 -3.10789,0.0382 -6.65341,0.93141 -10.63655,2.67971 -4.00125,1.7239 -8.55434,4.48236 -13.65929,8.27538 -5.15813,3.83253 -9.13021,7.48406 -11.91626,10.95458 -2.80416,3.44613 -4.71712,6.70321 -5.73885,9.77125 -1.02176,3.06804 -1.24172,5.93778 -0.65989,8.60921 0.61688,2.60752 1.74977,5.0209 3.39868,7.24014 1.92071,2.58504 4.07657,4.59792 6.46758,6.03865 2.3729,1.41636 5.11331,2.10544 8.2212,2.06726 3.10789,-0.0382 6.65341,-0.9314 10.63655,-2.6797 3.96501,-1.77267 8.52658,-4.57528 13.68471,-8.40782 5.15813,-3.83253 9.13926,-7.47185 11.94342,-10.91798 2.80417,-3.44613 4.70806,-6.71541 5.71169,-9.80784 1.00362,-3.09242 1.18794,-5.9546 0.55293,-8.58652 -0.59995,-2.6958 -1.74249,-5.17772 -3.42764,-7.44572 z"
           id="path7121"
           style="fill:#ffffff" />
      </g>
      <g
         aria-label="scar"
         id="text7190"
         style="font-size:20px;font-family:Calibri;-inkscape-font-specification:'Calibri Bold';shape-inside:url(#rect7192);fill:#ffffff"
         transform="translate(85.166296,-97.731814)">
        <path
           d="m 297.76562,642.98242 q 0,0.74219 -0.2832,1.3086 -0.27344,0.5664 -0.78125,0.94726 -0.50781,0.38086 -1.20117,0.56641 Q 294.80664,646 293.99609,646 q -0.48828,0 -0.9375,-0.0781 -0.43945,-0.0684 -0.79101,-0.17578 -0.35156,-0.11718 -0.58594,-0.23437 -0.23437,-0.11719 -0.3418,-0.21485 -0.10742,-0.10742 -0.16601,-0.32226 -0.0586,-0.22461 -0.0586,-0.6543 0,-0.2832 0.0195,-0.44922 0.0195,-0.17578 0.0586,-0.27343 0.0391,-0.10743 0.0977,-0.13672 0.0586,-0.0391 0.14648,-0.0391 0.10742,0 0.3125,0.12696 0.21484,0.11719 0.52734,0.26367 0.3125,0.14648 0.72266,0.27344 0.41992,0.12695 0.94727,0.12695 0.33203,0 0.58593,-0.0684 0.26367,-0.0684 0.44922,-0.19531 0.19531,-0.12695 0.29297,-0.32227 0.0977,-0.19531 0.0977,-0.44922 0,-0.29296 -0.18555,-0.49804 -0.17578,-0.21485 -0.47852,-0.3711 -0.29296,-0.15625 -0.67382,-0.29297 -0.3711,-0.13671 -0.77149,-0.30273 -0.39062,-0.16602 -0.77148,-0.38086 -0.3711,-0.21484 -0.67383,-0.52734 -0.29297,-0.3125 -0.47852,-0.75196 -0.17578,-0.43945 -0.17578,-1.05468 0,-0.625 0.24414,-1.14258 0.24414,-0.52735 0.70313,-0.89844 0.45898,-0.37109 1.11328,-0.57617 0.66406,-0.20508 1.48437,-0.20508 0.41016,0 0.79102,0.0586 0.39062,0.0586 0.70312,0.14649 0.3125,0.0879 0.52735,0.19531 0.21484,0.0977 0.30273,0.17578 0.0977,0.0684 0.13672,0.14649 0.0391,0.0684 0.0586,0.17578 0.0195,0.0977 0.0293,0.2539 0.0195,0.14649 0.0195,0.3711 0,0.26367 -0.0195,0.42969 -0.01,0.16601 -0.0488,0.26367 -0.0293,0.0977 -0.0879,0.13672 -0.0586,0.0293 -0.13672,0.0293 -0.0879,0 -0.27343,-0.0976 -0.18555,-0.10742 -0.46875,-0.22461 -0.27344,-0.11719 -0.64453,-0.21485 -0.36133,-0.10742 -0.83008,-0.10742 -0.33203,0 -0.57617,0.0684 -0.24414,0.0684 -0.40039,0.19531 -0.15625,0.12696 -0.23438,0.30274 -0.0781,0.16601 -0.0781,0.36133 0,0.30273 0.18554,0.50781 0.18555,0.20508 0.48828,0.36133 0.30274,0.15625 0.6836,0.29297 0.39062,0.13671 0.78125,0.30273 0.40039,0.15625 0.78125,0.37109 0.39062,0.21485 0.69336,0.52735 0.30273,0.3125 0.48828,0.75195 0.18554,0.42969 0.18554,1.02539 z"
           id="path7196"
           style="fill:#ffffff" />
        <path
           d="m 306.20312,644.05664 q 0,0.25391 -0.0195,0.42969 -0.01,0.16601 -0.0391,0.2832 -0.0195,0.11719 -0.0586,0.19531 -0.0293,0.0684 -0.14649,0.18555 -0.11718,0.10742 -0.40039,0.27344 -0.2832,0.15625 -0.64453,0.2832 -0.36133,0.12695 -0.79101,0.20508 -0.41993,0.0781 -0.86915,0.0781 -1.00585,0 -1.7871,-0.3125 -0.77149,-0.3125 -1.29883,-0.91796 -0.52735,-0.61524 -0.80078,-1.49415 -0.26368,-0.8789 -0.26368,-2.01171 0,-1.3086 0.32227,-2.25586 0.33203,-0.95703 0.91797,-1.58203 0.58594,-0.625 1.38672,-0.92774 0.80078,-0.30273 1.75781,-0.30273 0.39062,0 0.76172,0.0684 0.38086,0.0684 0.70312,0.18554 0.33203,0.11719 0.58594,0.26367 0.26367,0.14649 0.37109,0.25391 0.10743,0.10742 0.14649,0.18555 0.0488,0.0684 0.0684,0.18554 0.0293,0.11719 0.0391,0.29297 0.0195,0.16602 0.0195,0.41016 0,0.56641 -0.0976,0.80078 -0.0977,0.22461 -0.25391,0.22461 -0.16602,0 -0.35156,-0.13672 -0.18555,-0.13672 -0.43946,-0.30273 -0.2539,-0.16602 -0.60546,-0.30274 -0.35157,-0.13672 -0.83985,-0.13672 -0.95703,0 -1.46484,0.74219 -0.50781,0.73242 -0.50781,2.1582 0,0.70313 0.12695,1.24024 0.12695,0.53711 0.37109,0.89844 0.25391,0.36132 0.625,0.54687 0.38086,0.17578 0.87891,0.17578 0.50781,0 0.86914,-0.14648 0.37109,-0.15625 0.64453,-0.3418 0.27344,-0.18555 0.45898,-0.33203 0.18555,-0.15625 0.3125,-0.15625 0.0879,0 0.14649,0.0488 0.0586,0.0488 0.0879,0.18555 0.0391,0.12695 0.0586,0.33203 0.0195,0.20507 0.0195,0.52734 z"
           id="path7198"
           style="fill:#ffffff" />
        <path
           d="m 315.28516,645.47266 q 0,0.13671 -0.0977,0.21484 -0.0977,0.0781 -0.3125,0.10742 -0.20508,0.0391 -0.61523,0.0391 -0.43946,0 -0.64454,-0.0391 -0.19531,-0.0293 -0.2832,-0.10742 -0.0781,-0.0781 -0.0781,-0.21484 v -0.69336 q -0.53711,0.57617 -1.23047,0.89843 Q 311.33984,646 310.5,646 q -0.69336,0 -1.2793,-0.18555 -0.57617,-0.17578 -1.00586,-0.52734 -0.41992,-0.36133 -0.65429,-0.88867 -0.23438,-0.52735 -0.23438,-1.23047 0,-0.76172 0.29297,-1.31836 0.30273,-0.56641 0.88867,-0.92774 0.59571,-0.37109 1.47461,-0.54687 0.87891,-0.17578 2.04102,-0.17578 h 0.84961 v -0.52735 q 0,-0.41015 -0.0879,-0.71289 -0.0781,-0.3125 -0.27344,-0.51757 -0.18555,-0.20508 -0.50781,-0.30274 -0.3125,-0.0977 -0.78125,-0.0977 -0.61524,0 -1.10352,0.13671 -0.47852,0.13672 -0.84961,0.30274 -0.37109,0.16601 -0.625,0.30273 -0.24414,0.13672 -0.40039,0.13672 -0.10742,0 -0.19531,-0.0684 -0.0781,-0.0684 -0.13672,-0.19531 -0.0488,-0.12695 -0.0781,-0.3125 -0.0293,-0.18555 -0.0293,-0.41016 0,-0.30273 0.0488,-0.47851 0.0488,-0.17578 0.18554,-0.3125 0.13672,-0.14649 0.47852,-0.3125 0.34179,-0.17578 0.80078,-0.32227 0.45898,-0.14648 0.99609,-0.23437 0.54688,-0.0977 1.12305,-0.0977 1.02539,0 1.74805,0.20508 0.73242,0.19531 1.20117,0.61523 0.46875,0.41016 0.68359,1.06446 0.21485,0.65429 0.21485,1.55273 z m -2.41211,-3.73047 h -0.9375 q -0.59571,0 -1.01563,0.0879 -0.41992,0.0879 -0.68359,0.26367 -0.26367,0.17578 -0.39063,0.42969 -0.11718,0.24414 -0.11718,0.5664 0,0.54688 0.34179,0.85938 0.35156,0.3125 0.9668,0.3125 0.51758,0 0.94726,-0.26367 0.43946,-0.26368 0.88868,-0.77149 z"
           id="path7200"
           style="fill:#ffffff" />
        <path
           d="m 323.33203,637.54297 q 0,0.35156 -0.0195,0.57617 -0.0195,0.22461 -0.0586,0.35156 -0.0391,0.12696 -0.10743,0.17578 -0.0586,0.0488 -0.15625,0.0488 -0.0781,0 -0.17578,-0.0293 -0.0977,-0.0391 -0.22461,-0.0781 -0.11718,-0.0391 -0.26367,-0.0684 -0.14648,-0.0391 -0.32226,-0.0391 -0.20508,0 -0.41016,0.0879 -0.20508,0.0781 -0.42969,0.25391 -0.21484,0.17578 -0.45898,0.46875 -0.23438,0.29296 -0.50781,0.72265 v 5.42969 q 0,0.0977 -0.0586,0.17578 -0.0586,0.0684 -0.20508,0.11719 -0.13672,0.0488 -0.37109,0.0684 -0.23438,0.0293 -0.5957,0.0293 -0.36133,0 -0.59571,-0.0293 -0.23437,-0.0195 -0.38086,-0.0684 -0.13671,-0.0488 -0.19531,-0.11719 -0.0586,-0.0781 -0.0586,-0.17578 v -8.71094 q 0,-0.0977 0.0488,-0.16601 0.0488,-0.0781 0.17578,-0.12696 0.12695,-0.0488 0.32226,-0.0684 0.20508,-0.0293 0.50782,-0.0293 0.3125,0 0.51757,0.0293 0.20508,0.0195 0.3125,0.0684 0.11719,0.0488 0.16602,0.12696 0.0488,0.0684 0.0488,0.16601 v 1.08399 q 0.34179,-0.48829 0.64453,-0.80079 0.30273,-0.32226 0.57617,-0.50781 0.27344,-0.18554 0.54688,-0.2539 0.27343,-0.0781 0.54687,-0.0781 0.12695,0 0.27344,0.0195 0.14648,0.01 0.30273,0.0488 0.15625,0.0293 0.27344,0.0781 0.11719,0.0391 0.16602,0.0879 0.0586,0.0488 0.0781,0.10742 0.0293,0.0586 0.0488,0.16601 0.0195,0.0977 0.0293,0.30274 0.01,0.20508 0.01,0.55664 z"
           id="path7202"
           style="fill:#ffffff" />
      </g>
    </g>
  </g>
</svg>
